<?xml version="1.0" encoding="utf-8"?>
<!-- Generator: Adobe Illustrator 18.1.1, SVG Export Plug-In . SVG Version: 6.00 Build 0)  -->
<!DOCTYPE svg PUBLIC "-//W3C//DTD SVG 1.1//EN" "http://www.w3.org/Graphics/SVG/1.1/DTD/svg11.dtd">
<svg version="1.1" xmlns="http://www.w3.org/2000/svg" xmlns:xlink="http://www.w3.org/1999/xlink" x="0px" y="0px"
	 viewBox="0 0 42 42" enable-background="new 0 0 42 42" xml:space="preserve">
<g id="hover" display="none">
	<circle display="inline" opacity="0.25" fill="#FFFFFF" cx="21" cy="21" r="21"/>
</g>
<g id="default">
	<g>
		<path fill="#DBD9D6" d="M20.299,21.688c1.252,1.252,2.505,2.505,3.757,3.757c0.54,0.54,1.077,1.083,1.621,1.619
			c0.596,0.587,1.437,0.577,1.733-0.013c0.21-0.418,0.053-0.978-0.406-1.437c-3.543-3.543-7.086-7.087-10.629-10.63
			c-0.033-0.033-0.065-0.066-0.099-0.097c-0.476-0.438-1.149-0.512-1.515-0.166c-0.412,0.389-0.326,1.102,0.202,1.63
			C16.741,18.131,18.52,19.909,20.299,21.688z"/>
		<path fill="#DBD9D6" d="M20.314,20.299c-1.252,1.252-2.505,2.505-3.757,3.757c-0.54,0.54-1.083,1.077-1.619,1.621
			c-0.587,0.596-0.577,1.437,0.013,1.733c0.418,0.21,0.978,0.053,1.437-0.406c3.543-3.543,7.087-7.086,10.63-10.629
			c0.033-0.033,0.066-0.065,0.097-0.099c0.438-0.476,0.512-1.149,0.166-1.515c-0.389-0.411-1.102-0.326-1.63,0.202
			C23.871,16.741,22.093,18.52,20.314,20.299z"/>
	</g>
</g>
</svg>
